<svg width="416" height="178" viewBox="0 0 416 178" fill="none" xmlns="http://www.w3.org/2000/svg">
<path fill-rule="evenodd" clip-rule="evenodd" d="M193.099 2.5C193.099 3.88071 191.979 5 190.599 5C189.218 5 188.099 3.88071 188.099 2.5C188.099 1.11929 189.218 0 190.599 0C191.979 0 193.099 1.11929 193.099 2.5ZM192.099 2.5C192.099 3.32843 191.427 4 190.599 4C189.77 4 189.099 3.32843 189.099 2.5C189.099 1.67157 189.77 1 190.599 1C191.427 1 192.099 1.67157 192.099 2.5Z" fill="#0E422A"/>
<path d="M308.099 17C308.099 19.2091 306.308 21 304.099 21C301.889 21 300.099 19.2091 300.099 17C300.099 14.7909 301.889 13 304.099 13C306.308 13 308.099 14.7909 308.099 17Z" fill="#0E422A"/>
<path fill-rule="evenodd" clip-rule="evenodd" d="M64.0985 21H100.599L98.1602 26H100.599L63.0491 103H89.0985V73H124.099V101H140.099V135H124.099V156H88.0985V135H25.0985V99L64.0985 21ZM91.0985 105V75H122.099V103H138.099V128H122.099V149H90.0985V128H27.0985V99.4721L65.3346 23H97.3981L59.0985 101.538V105H91.0985Z" fill="#0E422A"/>
<path fill-rule="evenodd" clip-rule="evenodd" d="M321.599 21H358.099L355.66 26H358.099L320.549 103H346.599V73H381.599V101H397.599V135H381.599V156H345.599V135H282.599V99L321.599 21ZM316.599 105H348.599V75H379.599V103H395.599V128H379.599V149H347.599V128H284.599V99.4721L322.835 23H354.898L316.599 101.538V105Z" fill="#0E422A"/>
<path d="M211.287 72.5245C210.153 71.7686 210.107 70.1186 211.197 69.3009L212.399 68.4C212.619 68.2343 212.664 67.9209 212.499 67.7C212.333 67.4791 212.019 67.4343 211.799 67.6L210.597 68.5009C208.955 69.7326 209.024 72.2179 210.732 73.3565L210.821 73.416C211.951 74.1695 211.951 75.8304 210.821 76.5839C209.097 77.7333 209.097 80.2666 210.821 81.416C211.951 82.1695 211.951 83.8304 210.821 84.5839C209.097 85.7333 209.097 88.2666 210.821 89.416C211.951 90.1695 211.951 91.8304 210.821 92.5839C209.097 93.7333 209.097 96.2666 210.821 97.416C211.951 98.1695 211.951 99.8304 210.821 100.584C209.097 101.733 209.097 104.267 210.821 105.416L210.91 105.475C212.044 106.231 212.09 107.881 211 108.699L209.799 109.6C209.578 109.766 209.533 110.079 209.699 110.3C209.864 110.521 210.178 110.566 210.399 110.4L211.6 109.499C213.242 108.267 213.173 105.782 211.465 104.643L211.376 104.584C210.246 103.83 210.246 102.17 211.376 101.416C213.1 100.267 213.1 97.7333 211.376 96.5839C210.246 95.8304 210.246 94.1695 211.376 93.416C213.1 92.2666 213.1 89.7333 211.376 88.5839C210.246 87.8304 210.246 86.1695 211.376 85.416C213.1 84.2666 213.1 81.7333 211.376 80.5839C210.246 79.8304 210.246 78.1695 211.376 77.416C213.1 76.2666 213.1 73.7333 211.376 72.5839L211.287 72.5245Z" fill="#0E422A"/>
<path fill-rule="evenodd" clip-rule="evenodd" d="M191.099 85.5C191.099 99.2587 192.919 109.506 196.411 116.385C199.972 123.399 205.345 127 212.099 127C218.852 127 224.225 123.399 227.786 116.385C231.278 109.506 233.099 99.2587 233.099 85.5C233.099 71.6973 231.278 61.4489 227.785 54.5794C224.222 47.5727 218.846 44 212.099 44C205.351 44 199.975 47.5727 196.412 54.5794C192.919 61.4489 191.099 71.6973 191.099 85.5ZM193.119 87.9961C193.553 113.527 200.72 125 212.099 125C223.477 125 230.644 113.527 231.078 87.9959C230.644 62.3884 223.477 51 212.099 51C200.72 51 193.553 62.3884 193.119 87.9961Z" fill="#0E422A"/>
<path fill-rule="evenodd" clip-rule="evenodd" d="M154.124 88.0004C154.107 87.1733 154.099 86.3398 154.099 85.5C154.099 42.1406 176.598 17 212.099 17C247.599 17 270.099 42.1406 270.099 85.5C270.099 86.3398 270.09 87.1733 270.073 88.0005L270.073 87.9978C270.09 88.825 270.099 89.6591 270.099 90.5C270.099 133.498 247.87 160 212.099 160C176.327 160 154.099 133.588 154.099 90.5C154.099 89.6599 154.107 88.8267 154.124 88.0004ZM268.099 85.5C268.099 106.674 262.625 123.548 252.978 135.092C243.366 146.594 229.451 153 212.099 153C194.744 153 180.829 146.615 171.218 135.125C161.572 123.593 156.099 106.72 156.099 85.5C156.099 64.1477 161.638 47.5362 171.302 36.294C180.936 25.0883 194.851 19 212.099 19C229.346 19 243.261 25.0883 252.895 36.294C262.559 47.5362 268.099 64.1477 268.099 85.5Z" fill="#0E422A"/>
<path d="M393.099 168C395.308 168 397.099 166.209 397.099 164C397.099 161.791 395.308 160 393.099 160C390.889 160 389.099 161.791 389.099 164C389.099 166.209 390.889 168 393.099 168Z" fill="#0E422A"/>
<path d="M157.099 154C157.099 156.209 155.308 158 153.099 158C150.889 158 149.099 156.209 149.099 154C149.099 151.791 150.889 150 153.099 150C155.308 150 157.099 151.791 157.099 154Z" fill="#0E422A"/>
<path d="M19.0985 30C21.3077 30 23.0985 28.2091 23.0985 26C23.0985 23.7909 21.3077 22 19.0985 22C16.8894 22 15.0985 23.7909 15.0985 26C15.0985 28.2091 16.8894 30 19.0985 30Z" fill="#0E422A"/>
<path fill-rule="evenodd" clip-rule="evenodd" d="M108.599 58C109.979 58 111.099 56.8807 111.099 55.5C111.099 54.1193 109.979 53 108.599 53C107.218 53 106.099 54.1193 106.099 55.5C106.099 56.8807 107.218 58 108.599 58ZM108.599 57C109.427 57 110.099 56.3284 110.099 55.5C110.099 54.6716 109.427 54 108.599 54C107.77 54 107.099 54.6716 107.099 55.5C107.099 56.3284 107.77 57 108.599 57Z" fill="#0E422A"/>
<path fill-rule="evenodd" clip-rule="evenodd" d="M275.099 134.5C275.099 135.881 273.979 137 272.599 137C271.218 137 270.099 135.881 270.099 134.5C270.099 133.119 271.218 132 272.599 132C273.979 132 275.099 133.119 275.099 134.5ZM274.099 134.5C274.099 135.328 273.427 136 272.599 136C271.77 136 271.099 135.328 271.099 134.5C271.099 133.672 271.77 133 272.599 133C273.427 133 274.099 133.672 274.099 134.5Z" fill="#0E422A"/>
<path fill-rule="evenodd" clip-rule="evenodd" d="M404.599 45C405.979 45 407.099 43.8807 407.099 42.5C407.099 41.1193 405.979 40 404.599 40C403.218 40 402.099 41.1193 402.099 42.5C402.099 43.8807 403.218 45 404.599 45ZM404.599 44C405.427 44 406.099 43.3284 406.099 42.5C406.099 41.6716 405.427 41 404.599 41C403.77 41 403.099 41.6716 403.099 42.5C403.099 43.3284 403.77 44 404.599 44Z" fill="#0E422A"/>
<path fill-rule="evenodd" clip-rule="evenodd" d="M31.5985 171C32.9792 171 34.0985 169.881 34.0985 168.5C34.0985 167.119 32.9792 166 31.5985 166C30.2178 166 29.0985 167.119 29.0985 168.5C29.0985 169.881 30.2178 171 31.5985 171ZM31.5985 170C32.4269 170 33.0985 169.328 33.0985 168.5C33.0985 167.672 32.4269 167 31.5985 167C30.7701 167 30.0985 167.672 30.0985 168.5C30.0985 169.328 30.7701 170 31.5985 170Z" fill="#0E422A"/>
<path d="M99.574 4.18814C100.33 3.05426 101.98 3.00846 102.798 4.09867L103.699 5.29997C103.864 5.52089 104.178 5.56566 104.399 5.39997C104.619 5.23429 104.664 4.92089 104.499 4.69997L103.598 3.49867C102.366 1.8565 99.8806 1.92548 98.7419 3.63344L98.6825 3.72262C97.929 4.85291 96.2681 4.85291 95.5145 3.72262C94.3652 1.9986 91.8318 1.9986 90.6825 3.72262C89.929 4.85291 88.2681 4.85291 87.5145 3.72262C86.3652 1.9986 83.8318 1.9986 82.6825 3.72262C81.929 4.85291 80.2681 4.85291 79.5145 3.72262C78.3652 1.9986 75.8318 1.9986 74.6825 3.72262C73.929 4.85291 72.2681 4.85291 71.5145 3.72262C70.3652 1.9986 67.8318 1.9986 66.6825 3.72262L66.623 3.8118C65.8671 4.94569 64.2172 4.99148 63.3995 3.90127L62.4985 2.69997C62.3328 2.47906 62.0194 2.43429 61.7985 2.59997C61.5776 2.76566 61.5328 3.07906 61.6985 3.29997L62.5995 4.50127C63.8311 6.14345 66.3164 6.07446 67.4551 4.3665L67.5145 4.27732C68.2681 3.14703 69.929 3.14703 70.6825 4.27732C71.8318 6.00135 74.3652 6.00135 75.5145 4.27732C76.2681 3.14703 77.929 3.14703 78.6825 4.27732C79.8318 6.00135 82.3652 6.00135 83.5145 4.27732C84.2681 3.14703 85.929 3.14703 86.6825 4.27732C87.8318 6.00135 90.3652 6.00135 91.5145 4.27732C92.2681 3.14703 93.929 3.14703 94.6825 4.27732C95.8318 6.00135 98.3652 6.00135 99.5145 4.27732L99.574 4.18814Z" fill="#0E422A"/>
<path d="M329.798 152.099C328.98 151.008 327.33 151.054 326.574 152.188L326.515 152.277C325.365 154.001 322.832 154.001 321.683 152.277C320.929 151.147 319.268 151.147 318.515 152.277C317.365 154.001 314.832 154.001 313.683 152.277C312.929 151.147 311.268 151.147 310.515 152.277C309.365 154.001 306.832 154.001 305.683 152.277C304.929 151.147 303.268 151.147 302.515 152.277C301.365 154.001 298.832 154.001 297.683 152.277C296.929 151.147 295.268 151.147 294.515 152.277L294.455 152.367C293.317 154.074 290.831 154.143 289.6 152.501L288.699 151.3C288.533 151.079 288.578 150.766 288.799 150.6C289.02 150.434 289.333 150.479 289.499 150.7L290.4 151.901C291.217 152.991 292.867 152.946 293.623 151.812L293.683 151.723C294.832 149.999 297.365 149.999 298.515 151.723C299.268 152.853 300.929 152.853 301.683 151.723C302.832 149.999 305.365 149.999 306.515 151.723C307.268 152.853 308.929 152.853 309.683 151.723C310.832 149.999 313.365 149.999 314.515 151.723C315.268 152.853 316.929 152.853 317.683 151.723C318.832 149.999 321.365 149.999 322.515 151.723C323.268 152.853 324.929 152.853 325.683 151.723L325.742 151.633C326.881 149.925 329.366 149.856 330.598 151.499L331.499 152.7C331.664 152.921 331.62 153.234 331.399 153.4C331.178 153.566 330.864 153.521 330.699 153.3L329.798 152.099Z" fill="#0E422A"/>
<path d="M20.4992 59.826C19.8952 58.6044 20.6805 57.1525 22.0335 56.9895L23.5243 56.8099C23.7985 56.7769 23.994 56.5279 23.9609 56.2537C23.9279 55.9795 23.6789 55.7841 23.4047 55.8171L21.9139 55.9967C19.8759 56.2423 18.693 58.4291 19.6028 60.2692L19.6503 60.3652C20.2524 61.583 19.4219 63.0213 18.0663 63.1088C15.9986 63.2421 14.7319 65.4361 15.6503 67.2935C16.2524 68.5112 15.4219 69.9496 14.0663 70.037C11.9986 70.1703 10.7319 72.3643 11.6503 74.2217C12.2524 75.4394 11.4219 76.8778 10.0663 76.9652C7.9986 77.0985 6.73192 79.2925 7.65029 81.1499C8.25239 82.3676 7.42194 83.806 6.06632 83.8934C3.9986 84.0267 2.73192 86.2207 3.65029 88.0781L3.6978 88.1741C4.30181 89.3957 3.51649 90.8475 2.16351 91.0106L0.672664 91.1902C0.398504 91.2232 0.203031 91.4722 0.236062 91.7464C0.269092 92.0205 0.518119 92.216 0.792279 92.183L2.28312 92.0034C4.3211 91.7578 5.50403 89.571 4.59421 87.7309L4.5467 87.6348C3.94461 86.4171 4.77505 84.9787 6.13068 84.8913C8.1984 84.758 9.46508 82.564 8.5467 80.7066C7.94461 79.4889 8.77505 78.0505 10.1307 77.9631C12.1984 77.8298 13.4651 75.6358 12.5467 73.7784C11.9446 72.5607 12.7751 71.1223 14.1307 71.0349C16.1984 70.9016 17.4651 68.7076 16.5467 66.8502C15.9446 65.6325 16.7751 64.1941 18.1307 64.1067C20.1984 63.9734 21.4651 61.7794 20.5467 59.922L20.4992 59.826Z" fill="#0E422A"/>
<path d="M408.958 72.9991C409.151 71.65 407.952 70.5157 406.615 70.783L406.51 70.804C404.478 71.2104 402.687 69.419 403.094 67.3872C403.36 66.0552 402.185 64.8807 400.853 65.1471C398.822 65.5535 397.03 63.7621 397.437 61.7304C397.703 60.3983 396.529 59.2239 395.197 59.4903C393.165 59.8966 391.373 58.1053 391.78 56.0735C392.046 54.7415 390.872 53.567 389.54 53.8334C387.508 54.2398 385.717 52.4484 386.123 50.4167C386.389 49.0846 385.215 47.9102 383.883 48.1766L383.778 48.1976C381.765 48.6002 379.959 46.8916 380.249 44.8595L380.461 43.3729C380.5 43.0996 380.754 42.9096 381.027 42.9487C381.3 42.9877 381.49 43.241 381.451 43.5144L381.239 45.0009C381.046 46.35 382.245 47.4843 383.582 47.217L383.687 47.196C385.719 46.7896 387.51 48.581 387.104 50.6128C386.837 51.9448 388.012 53.1193 389.344 52.8529C391.375 52.4465 393.167 54.2378 392.76 56.2696C392.494 57.6017 393.668 58.7761 395 58.5097C397.032 58.1033 398.824 59.8947 398.417 61.9265C398.151 63.2585 399.325 64.433 400.657 64.1666C402.689 63.7602 404.48 65.5516 404.074 67.5833C403.808 68.9154 404.982 70.0898 406.314 69.8234L406.419 69.8024C408.432 69.3998 410.238 71.1084 409.948 73.1405L409.736 74.6271C409.697 74.9004 409.443 75.0904 409.17 75.0513C408.897 75.0123 408.707 74.759 408.746 74.4856L408.958 72.9991Z" fill="#0E422A"/>
<path d="M275.599 11.3074V7C275.599 6.72386 275.822 6.5 276.099 6.5C276.375 6.5 276.599 6.72386 276.599 7V11.3074C276.599 13.1381 275.484 14.7843 273.784 15.4642C272.464 15.9923 271.599 17.2708 271.599 18.6926V23C271.599 23.2761 271.375 23.5 271.099 23.5C270.822 23.5 270.599 23.2761 270.599 23V18.6926C270.599 16.8619 271.713 15.2157 273.413 14.5358C274.733 14.0077 275.599 12.7292 275.599 11.3074Z" fill="#0E422A"/>
<path d="M57.5985 161V165.307C57.5985 166.729 56.7329 168.008 55.4128 168.536C53.7131 169.216 52.5985 170.862 52.5985 172.693V177C52.5985 177.276 52.8224 177.5 53.0985 177.5C53.3747 177.5 53.5985 177.276 53.5985 177V172.693C53.5985 171.271 54.4641 169.992 55.7842 169.464C57.484 168.784 58.5985 167.138 58.5985 165.307V161C58.5985 160.724 58.3747 160.5 58.0985 160.5C57.8224 160.5 57.5985 160.724 57.5985 161Z" fill="#0E422A"/>
<path d="M414.599 113.307V109C414.599 108.724 414.822 108.5 415.099 108.5C415.375 108.5 415.599 108.724 415.599 109V113.307C415.599 115.138 414.484 116.784 412.784 117.464C411.464 117.992 410.599 119.271 410.599 120.693V125C410.599 125.276 410.375 125.5 410.099 125.5C409.822 125.5 409.599 125.276 409.599 125V120.693C409.599 118.862 410.713 117.216 412.413 116.536C413.733 116.008 414.599 114.729 414.599 113.307Z" fill="#0E422A"/>
<path d="M180.406 169.5C181.828 169.5 183.106 170.366 183.634 171.686C184.314 173.385 185.96 174.5 187.791 174.5H192.099C192.375 174.5 192.599 174.276 192.599 174C192.599 173.724 192.375 173.5 192.099 173.5H187.791C186.369 173.5 185.091 172.634 184.563 171.314C183.883 169.615 182.237 168.5 180.406 168.5H176.099C175.822 168.5 175.599 168.724 175.599 169C175.599 169.276 175.822 169.5 176.099 169.5H180.406Z" fill="#0E422A"/>
</svg>
